# xmcd
#
# Track frame offsets: 
#        150
#        22798
#        38792
#        59932
#        78863
#        100818
#        119280
#        141385
#        160879
#        177338
#        196101
#        208114
#
# Disc length: 3042 seconds
#
# Revision: 0
# Processed by: cddbd v1.5.2PL0 Copyright (c) Steve Scherf et al.
# Submitted via: ExactAudioCopy v0.99pb5
#
DISCID=a20be00c
DTITLE=Mark Krurnowski - Suspended In Mid-Air
DYEAR=2002
DGENRE=Blues
TTITLE0=Suspended In Mid-Air
TTITLE1=The Funk Walk
TTITLE2=Climbing Green Hills
TTITLE3=The Scratch
TTITLE4=Sarsandeo
TTITLE5=Green Tea Groove
TTITLE6=Sci-Fi Spaghetti Western
TTITLE7=Taking Flight
TTITLE8=Ode To Toothless Joe
TTITLE9=Reflections
TTITLE10=Texas Toast
TTITLE11=Grasshoppin' Blues (Live)
EXTD=
EXTT0=
EXTT1=
EXTT2=
EXTT3=
EXTT4=
EXTT5=
EXTT6=
EXTT7=
EXTT8=
EXTT9=
EXTT10=
EXTT11=
PLAYORDER=
